# xmcd
#
# Track frame offsets:
#	150
#	15100
#	39113
#	59465
#	90025
#	117721
#	145028
#	171324
#	189442
#	205078
#	217243
#	240924
#	274966
#
# Disc length: 3905
#
# Revision: 1
# Processed by: cddbd v1.5.1PL0 Copyright (c) Steve Scherf et al.
# Submitted via: CDex 1.51
# Normalized: r0:TSWAP
#
DISCID=ab0f3f0d
DTITLE=Odeon Jazz Quartett and Swinging Voices - Jazz 2002
DYEAR=2002
DGENRE=Jazz
TTITLE0=I. and G. Gershwin - Strike up the Band
TTITLE1=j. Young, T. Bruckner - Twenty-four Rubbers
TTITLE2=Duke Ellington - It don't mean a Thing
TTITLE3=J. Mercer, J. Kern - Dearly beloved
TTITLE4=V. Youmans, I. Caesar - I want to be happy
TTITLE5=Errol Garner - Mambo 207
TTITLE6=H. Carmichael - Blue Orchids
TTITLE7=Quincy Jones - Soul Bossa
TTITLE8=Henry Mancini - Pink Panther, The
TTITLE9=R. Jacobs, Arr.: J. Gray - The Booglie Wooglie Pggy
TTITLE10=Henry Mancini - Moon River
TTITLE11=H. Arlen, J. Mercer - Blues in the Night
TTITLE12=i. Mills, Nat King Cole - Straighten up and fly right
EXTD=YEAR: 2002
EXTT0=
EXTT1=
EXTT2=
EXTT3=
EXTT4=
EXTT5=
EXTT6=
EXTT7=
EXTT8=
EXTT9=
EXTT10=
EXTT11=
EXTT12=
PLAYORDER=
